<svg xmlns="http://www.w3.org/2000/svg" version="1.1" xmlns:xlink="http://www.w3.org/1999/xlink" xmlns:svgjs="http://svgjs.dev/svgjs" width="1440" height="560" preserveAspectRatio="none" viewBox="0 0 1440 560"><g mask="url(&quot;#SvgjsMask1004&quot;)" fill="none"><rect width="1440" height="560" x="0" y="0" fill="#1e3266"></rect><path d="M1488 560L0 560 L0 365.37Q11.31 304.69, 72 316Q91.03 263.03, 144 282.07Q188.28 254.35, 216 298.62Q309.89 272.51, 336 366.4Q365.38 323.78, 408 353.16Q448.61 273.77, 528 314.38Q573.12 239.5, 648 284.62Q737.66 254.28, 768 343.95Q818.44 322.39, 840 372.83Q847.58 308.4, 912 315.98Q938.18 270.16, 984 296.34Q1037.54 277.88, 1056 331.41Q1136.7 292.12, 1176 372.82Q1207.15 283.98, 1296 315.13Q1339.38 286.5, 1368 329.88Q1415.18 257.06, 1488 304.24z" fill="#182f5d"></path><path d="M1488 560L0 560 L0 399.5Q29 356.5, 72 385.49Q147.69 341.18, 192 416.87Q205.52 358.39, 264 371.92Q292.85 328.77, 336 357.62Q387.24 336.86, 408 388.09Q471.61 379.69, 480 443.3Q503.7 347, 600 370.7Q665.01 315.71, 720 380.72Q743.09 331.81, 792 354.9Q882.49 325.38, 912 415.87Q979.27 363.14, 1032 430.41Q1050.2 376.61, 1104 394.81Q1157.48 328.29, 1224 381.77Q1312.52 350.29, 1344 438.81Q1363.29 386.1, 1416 405.39Q1443.17 360.56, 1488 387.74z" fill="#25467d"></path><path d="M1512 560L0 560 L0 424.2Q60.59 364.79, 120 425.39Q186.93 372.32, 240 439.25Q320.78 400.03, 360 480.82Q385.46 434.28, 432 459.74Q477.12 384.86, 552 429.97Q619.56 377.53, 672 445.09Q743.03 396.13, 792 467.16Q835.07 438.23, 864 481.29Q905.39 450.69, 936 492.08Q1002.85 438.93, 1056 505.78Q1100.65 430.43, 1176 475.08Q1200.66 427.74, 1248 452.4Q1276.74 409.14, 1320 437.88Q1419.09 416.97, 1440 516.06Q1448.59 452.64, 1512 461.23z" fill="#356cb1"></path><path d="M1512 560L0 560 L0 498.44Q72.83 451.27, 120 524.1Q175.3 507.4, 192 562.7Q196.09 494.79, 264 498.88Q334.49 449.37, 384 519.86Q445.87 509.73, 456 571.59Q456.99 500.58, 528 501.56Q602.89 504.45, 600 579.34Q660.61 519.95, 720 580.56Q724.83 513.39, 792 518.22Q843.75 449.98, 912 501.73Q967.55 485.28, 984 540.83Q995.29 480.12, 1056 491.41Q1099.51 462.93, 1128 506.44Q1169.19 475.63, 1200 516.83Q1294.18 491.01, 1320 585.19Q1358.76 503.95, 1440 542.71Q1465.73 496.44, 1512 522.18z" fill="white"></path></g><defs><mask id="SvgjsMask1004"><rect width="1440" height="560" fill="#ffffff"></rect></mask></defs></svg>